<svg width="296.000000" height="94.000000" viewBox="0 0 296 94" fill="none" xmlns="http://www.w3.org/2000/svg" xmlns:xlink="http://www.w3.org/1999/xlink">
	<desc>
			Created with Pixso.
	</desc>
	<defs/>
	<rect id="logo v1" rx="11.500000" width="295.000000" height="93.000000" transform="translate(0.500000 0.500000)" fill="#3C454A" fill-opacity="0"/>
	<path id="Vector" d="M23.97 13C24.03 13.02 24.09 13.05 24.14 13.07C24.25 14.39 23.76 15.6 23.2 16.77C22.53 18.18 21.97 19.62 21.43 21.08C20.59 23.36 19.67 25.55 17.9 27.28C20.81 27.14 20.81 27.14 23.33 25.98C24.51 24.42 24.95 22.42 25.46 20.57C25.5 20.46 25.5 20.46 25.53 20.34C25.58 20.15 25.64 19.95 25.69 19.76C25.81 19.41 25.96 19.14 26.19 18.85C26.26 18.85 26.32 18.85 26.39 18.85C26.72 19.57 26.73 20.23 26.73 21.01C26.73 21.14 26.73 21.27 26.73 21.4C26.71 22.72 26.53 24.1 26 25.32C26.81 24.91 27.53 24.42 28.24 23.85C28.32 23.79 28.4 23.72 28.48 23.66C30.86 21.66 31.48 18.48 31.77 15.53C31.79 15.36 31.8 15.19 31.82 15.01C31.86 14.59 31.9 14.18 31.95 13.76C32.07 13.72 32.2 13.69 32.34 13.66C32.66 14.1 32.83 14.5 32.99 15.02C33.01 15.09 33.03 15.16 33.05 15.23C33.79 17.67 33.32 20.6 32.2 22.85C30.49 25.85 27.37 27.64 24.15 28.57C22.59 28.99 21.01 29.27 19.4 29.37C18.04 29.47 16.78 29.6 15.76 30.61C15.47 30.97 15.31 31.31 15.37 31.78C15.43 31.82 15.5 31.85 15.56 31.88C15.58 31.83 15.6 31.77 15.62 31.72C15.99 31.12 16.63 30.88 17.28 30.69C18.25 30.47 19.29 30.57 20.27 30.58C20.51 30.59 20.74 30.59 20.97 30.59C21.54 30.59 22.11 30.6 22.68 30.61C22.59 30.75 22.5 30.89 22.4 31.03C22.35 31.11 22.3 31.18 22.25 31.26C21.22 32.8 20.18 33.81 18.36 34.28C17.97 34.35 17.61 34.35 17.22 34.33C17.27 34.43 17.32 34.53 17.37 34.63C18.13 36.09 18.71 37.53 18.71 39.2C18.71 39.38 18.72 39.56 18.72 39.74C18.72 40.02 18.72 40.29 18.73 40.57C18.74 42.31 18.89 43.98 20.14 45.32C21.45 46.49 23.24 47.04 24.92 47.39C25.02 47.41 25.02 47.41 25.13 47.43C26.51 47.69 27.91 47.78 29.31 47.78C29.56 47.78 29.8 47.78 30.04 47.79C30.74 47.79 31.43 47.79 32.12 47.8C36.57 47.81 40.92 47.97 44.33 51.18C44.42 51.26 44.51 51.35 44.6 51.43C45.04 51.86 45.43 52.31 45.81 52.81C46.83 54.18 48.06 55.07 49.69 55.59C48.98 56.38 47.8 56.69 46.77 56.77C46.03 56.8 45.35 56.75 44.62 56.57C44.51 56.25 44.42 55.94 44.35 55.61C44.24 55.11 43.95 54.72 43.65 54.32C43.65 54.6 43.68 54.74 43.78 55C44.22 56.31 44.17 57.68 44.17 59.06C44.17 60.6 44.17 60.6 44.62 62.06C44.67 62.17 44.72 62.27 44.77 62.39C45.41 63.49 46.39 64.72 47.53 65.34C47.99 65.61 48.28 65.81 48.44 66.33C48.49 66.69 48.5 67.05 48.51 67.42C48.52 67.74 48.54 68.07 48.56 68.39C48.57 68.56 48.57 68.72 48.58 68.89C48.62 69.63 48.7 70.35 48.8 71.08C48.81 71.2 48.83 71.31 48.85 71.43C48.99 72.41 49.14 73.38 49.3 74.35C49.32 74.42 49.33 74.49 49.34 74.56C49.48 75.43 49.66 76.27 49.91 77.12C49.99 77.43 50.01 77.7 49.99 78.03C49.86 78.21 49.86 78.21 49.69 78.32C49.57 78.32 49.44 78.32 49.3 78.32C49.24 78.42 49.18 78.53 49.11 78.64C49.08 78.7 49.04 78.76 49.01 78.82C48.76 79.31 48.78 79.84 48.76 80.38C48.72 80.67 48.72 80.67 48.52 80.96C48.23 80.99 47.95 81 47.65 80.99C47.57 80.99 47.48 80.99 47.39 80.99C47.11 80.99 46.84 80.99 46.56 80.98C46.37 80.98 46.19 80.98 46 80.98C45.54 80.98 45.08 80.97 44.62 80.96C44.67 80.82 44.71 80.68 44.76 80.54C44.79 80.46 44.81 80.38 44.84 80.3C44.93 80.03 45.06 79.79 45.21 79.54C45.3 79.39 45.3 79.39 45.39 79.24C45.54 78.99 45.7 78.75 45.85 78.51C45.9 78.44 45.94 78.37 45.98 78.3C46.07 78.17 46.16 78.03 46.24 77.9C46.99 76.72 46.9 75.31 46.62 73.99C46.52 73.53 46.4 73.09 46.28 72.64C46.26 72.55 46.24 72.47 46.21 72.39C45.63 70.27 44.82 68.57 42.86 67.45C42.48 67.24 42.09 67.07 41.69 66.89C37.77 65.08 34.32 62.27 32.75 58.13C32.45 57.27 32.24 56.38 32.04 55.49C31.61 57.15 32.37 58.93 33.15 60.38C33.28 60.63 33.35 60.81 33.41 61.08C31.82 61.55 30.22 61.96 28.62 62.35C28.34 62.41 28.06 62.48 27.78 62.55C26.3 62.92 24.82 63.27 23.32 63.57C23.14 63.61 23.14 63.61 22.96 63.65C21.95 63.85 20.73 64.09 19.75 63.62C19.85 63.38 19.95 63.13 20.05 62.89C20.1 62.77 20.1 62.77 20.15 62.64C20.18 62.56 20.22 62.48 20.25 62.4C20.79 60.91 20.38 59.11 19.95 57.65C19.95 57.76 19.95 57.76 19.96 57.87C20.02 59.92 19.76 61.61 19.1 63.54C18.69 64.76 18.45 66.02 18.23 67.29C18.21 67.39 18.19 67.5 18.17 67.61C17.76 70.12 17.66 72.6 17.69 75.14C17.69 75.53 17.69 75.92 17.69 76.32C17.7 77.08 17.7 77.85 17.71 78.61C17.55 78.58 17.39 78.55 17.22 78.52C16.65 79.05 16.49 79.61 16.32 80.35C16.24 80.67 16.24 80.67 16.15 80.87C14.8 80.87 13.44 80.87 12.05 80.87C12.7 79.56 12.7 79.56 13.16 79.07C14.43 77.64 14.84 76.2 14.82 74.3C14.82 74.22 14.82 74.14 14.82 74.07C14.8 70.67 14.45 67.28 13.94 63.93C13.93 63.85 13.92 63.78 13.91 63.71C13.8 63 13.66 62.46 13.21 61.9C11.47 59.66 10.68 57.02 11.02 54.18C11.38 52.04 12.42 50.18 13.81 48.54C13.65 48.67 13.48 48.81 13.32 48.95C13.2 49.06 13.07 49.17 12.94 49.28C12.06 50.03 11.36 50.87 10.78 51.87C10.74 51.94 10.69 52.02 10.65 52.1C9.66 53.9 9.78 55.78 10.32 57.7C10.94 59.77 12.05 61.47 13.51 63.04C13.16 63.87 12.16 64.29 11.4 64.67C11.2 64.77 11 64.87 10.81 64.98C10.71 65.03 10.6 65.08 10.5 65.13C10.01 65.39 9.52 65.65 9.04 65.91C8.91 65.98 8.91 65.98 8.78 66.06C8.28 66.33 7.81 66.62 7.35 66.94C7.17 67.05 7.17 67.05 6.98 67.05C7.51 69.15 9.08 71.83 10.77 73.2C11.11 73.4 11.49 73.5 11.87 73.6C12.32 73.79 12.54 74.09 12.73 74.53C12.82 74.78 12.89 75.03 12.97 75.29C12.99 75.38 13.02 75.46 13.05 75.55C13.18 76 13.24 76.29 13.12 76.75C11.75 76.87 10.69 76.05 9.6 75.31C9.44 75.2 9.28 75.09 9.12 74.99C8.26 74.41 7.68 73.74 7.12 72.87C7 72.69 6.88 72.51 6.76 72.32C6.67 72.18 6.67 72.18 6.58 72.04C6.28 71.58 5.98 71.13 5.68 70.68C5.56 70.5 5.44 70.33 5.32 70.15C5.14 69.88 4.96 69.61 4.78 69.34C4.61 69.08 4.43 68.81 4.25 68.55C4.2 68.47 4.14 68.39 4.09 68.3C3.03 66.71 3.03 66.71 3.18 65.78C3.42 65.45 3.71 65.18 4.01 64.9C4.08 64.82 4.16 64.75 4.24 64.67C4.66 64.26 5.09 63.88 5.53 63.5C5.84 63.22 6.14 62.92 6.44 62.62C6.5 62.56 6.56 62.49 6.63 62.43C7.14 61.91 7.61 61.36 8.05 60.78C7.9 60.39 7.64 60.18 7.32 59.91C5.02 57.85 3.62 54.63 3.37 51.57C3.14 47.54 5.19 44.12 7.61 41.08C7.71 40.96 7.81 40.83 7.89 40.69C8.09 40.42 8.22 40.24 8.56 40.16C8.8 40.15 9.04 40.16 9.29 40.18C9.46 40.18 9.64 40.19 9.81 40.2C9.94 40.2 9.94 40.2 10.07 40.21C10.52 40.21 10.93 40.13 11.37 40.01C11.51 39.98 11.51 39.98 11.66 39.94C12.47 39.71 13.1 39.34 13.56 38.61C13.65 38.43 13.73 38.24 13.81 38.05C13.73 38.15 13.65 38.26 13.57 38.36C12.82 39.23 11.81 39.56 10.69 39.65C9.96 39.68 9.26 39.62 8.53 39.48C7.17 39.22 5.83 39.18 4.44 39.18C4.02 39.18 3.59 39.18 3.16 39.18C3.07 39.18 2.97 39.18 2.88 39.18C2.18 39.18 1.09 39.27 1.13 38.54C1.14 38.37 1.13 38.25 1.26 38.11C1.41 38 1.71 37.96 1.71 37.76C1.71 37.56 1.49 37.38 1.32 37.47C1.13 37.56 1 37.79 0.84 37.96C0.46 37.81 0.33 37.63 0.15 37.27C0.06 36.96 0.03 36.66 0.01 36.34C0.01 36.25 0 36.16 0 36.06C0.06 35.8 0.06 35.8 0.29 35.6C0.7 35.36 1.15 35.18 1.59 35C2.98 34.41 4.34 33.77 5.68 33.04C5.76 33 5.85 32.95 5.94 32.9C6.86 32.4 7.57 31.83 8.22 31.01C8.64 30.62 9.15 30.58 9.7 30.53C9.82 30.52 9.95 30.5 10.07 30.49C10.21 30.48 10.34 30.47 10.47 30.45C10.72 30.43 10.98 30.41 11.24 30.38C11.35 30.37 11.47 30.36 11.58 30.35C11.85 30.33 11.85 30.33 12.05 30.22C11.89 30.06 11.7 30.07 11.49 30.04C9.35 29.73 7.29 29.19 5.83 27.44C5.14 26.51 4.71 25.39 4.71 24.22C4.7 24.11 4.7 23.99 4.7 23.87C4.74 23.53 4.82 23.34 5.03 23.06C5.24 22.98 5.24 22.98 5.42 22.97C5.52 23.27 5.62 23.57 5.71 23.87C6.17 25.29 6.99 26.4 8.31 27.11C9.6 27.71 10.84 27.89 12.25 27.86C12.17 27.81 12.09 27.75 12 27.68C10.4 26.49 8.98 25.02 8.49 23C8.42 22.54 8.41 22.09 8.41 21.63C8.4 21.54 8.4 21.45 8.4 21.36C8.41 20.71 8.54 20.22 8.83 19.64C9.03 19.68 9.03 19.68 9.22 19.73C9.23 19.79 9.25 19.85 9.26 19.9C9.61 21.53 10.02 23.1 11.23 24.31C11.3 24.37 11.36 24.43 11.42 24.49C11.47 24.54 11.51 24.58 11.56 24.63C11.56 24.52 11.56 24.4 11.56 24.28C11.43 18.06 11.43 18.06 13.03 15.91C13.09 15.85 13.15 15.78 13.22 15.72C13.32 15.72 13.41 15.72 13.51 15.72C13.61 16.22 13.6 16.65 13.52 17.15C13.39 18.12 13.38 19.08 13.39 20.05C13.39 20.14 13.39 20.23 13.39 20.32C13.39 22.36 13.44 24.81 14.59 26.59C14.76 26.69 14.76 26.69 14.98 26.69C15.66 26.37 16.24 25.89 16.73 25.32C16.82 25.22 16.9 25.12 16.98 25.02C18.2 23.57 18.9 22.07 18.8 20.14C18.76 19.78 18.67 19.43 18.58 19.08C18.39 18.26 18.35 17.45 18.34 16.61C18.34 16.49 18.34 16.38 18.34 16.25C18.34 15.26 18.49 14.13 19.17 13.36C19.38 13.27 19.38 13.27 19.56 13.27C19.66 13.36 19.66 13.36 19.66 13.64C19.66 13.76 19.66 13.88 19.66 14C19.65 14.14 19.65 14.27 19.65 14.4C19.65 14.47 19.65 14.54 19.65 14.62C19.63 15.83 19.68 16.97 19.95 18.17C19.98 18.39 20.02 18.62 20.05 18.85C20.11 18.85 20.18 18.85 20.24 18.85C20.28 18.74 20.28 18.74 20.33 18.63C20.7 17.72 22.81 12.87 23.97 13Z" fill="#0294FC" fill-opacity="1.000000" fill-rule="nonzero"/>
	<path id="Vector" d="M33.9 61.76C34.07 61.95 34.21 62.12 34.35 62.33C34.44 62.45 34.52 62.57 34.61 62.68C34.65 62.74 34.7 62.8 34.74 62.86C35.19 63.46 35.68 64 36.29 64.43C36.56 64.66 36.62 64.76 36.68 65.11C36.69 65.36 36.7 65.61 36.7 65.86C36.73 66.84 37.11 67.87 37.62 68.7C37.74 69.02 37.7 69.17 37.6 69.5C37.41 69.85 37.19 70.17 36.97 70.49C36.91 70.59 36.84 70.68 36.78 70.77C36.32 71.44 35.85 72.09 35.36 72.74C35.15 73.01 34.94 73.29 34.73 73.57C34.54 73.83 34.35 74.09 34.15 74.34C33.16 75.64 32.46 76.94 31.88 78.47C31.63 79.1 31.63 79.1 31.36 79.3C31.3 79.3 31.23 79.3 31.16 79.3C31.16 79.17 31.16 79.04 31.16 78.91C30.73 79.09 30.45 79.27 30.23 79.7C30.15 79.93 30.08 80.15 30 80.38C29.9 80.67 29.84 80.78 29.6 80.96C29.32 80.99 29.05 81 28.77 80.99C28.68 80.99 28.6 80.99 28.52 80.99C28.26 80.99 27.99 80.99 27.73 80.98C27.56 80.98 27.38 80.98 27.2 80.98C26.77 80.98 26.33 80.97 25.9 80.96C26.16 79.27 27.89 78.01 29.12 76.95C30.87 75.4 32.87 72.35 33.14 69.97C33.08 69.06 32.41 68.43 31.84 67.77C30.83 66.59 29.21 64.56 29.21 62.94C29.33 62.91 29.45 62.87 29.57 62.84C30 62.72 30.43 62.6 30.87 62.48C31.05 62.43 31.24 62.38 31.43 62.33C31.7 62.25 31.96 62.18 32.23 62.11C32.32 62.08 32.4 62.06 32.49 62.04C32.57 62.01 32.64 61.99 32.72 61.97C32.79 61.95 32.86 61.93 32.93 61.91C33.62 61.72 33.62 61.72 33.9 61.76Z" fill="#0294FC" fill-opacity="1.000000" fill-rule="nonzero"/>
	<path id="Vector" d="M10.3 32.86C10.46 32.88 10.62 32.89 10.79 32.91C10.98 32.93 10.98 32.93 11.17 32.96C10.65 33.56 9.85 33.79 9.07 33.88C8.79 33.88 8.53 33.89 8.25 33.84C8.18 33.78 8.12 33.71 8.05 33.64C9.49 32.73 9.49 32.73 10.3 32.86Z" fill="#FAFAFA" fill-opacity="1.000000" fill-rule="nonzero"/>
	<path id="Портал заботы" d="M211.3 39.75C211.3 44.97 214.54 47.7 218.8 47.7C223.33 47.7 226.51 44.88 226.51 40.41C226.51 36.27 223.87 33.5 220.12 33.5C218.32 33.5 216.58 34.14 215.44 35.52C216.76 32.28 219.07 30.69 222.4 29.85L225.19 29.13L225.19 25.53L221.35 26.46C214.54 28.05 211.3 34.32 211.3 39.75ZM67.94 26.4L67.94 47.4L72.18 47.4L72.18 30.21L81.03 30.21L81.03 47.4L85.26 47.4L85.26 26.4L67.94 26.4ZM88.08 40.11C88.08 44.64 91.53 47.7 96 47.7C100.44 47.7 103.89 44.64 103.89 40.11C103.89 35.46 100.44 32.4 96 32.4C91.53 32.4 88.08 35.46 88.08 40.11ZM122.37 40.05C122.37 35.52 119.16 32.4 115.14 32.4C113.22 32.4 111.66 33.06 110.58 34.25L110.58 32.7L106.47 32.7L106.47 53.4L110.58 53.4L110.58 45.81C111.66 47.04 113.22 47.7 115.17 47.7C119.22 47.7 122.37 44.52 122.37 40.05ZM152.64 44.04C152.37 44.1 152.13 44.16 151.98 44.16C151.47 44.16 151.2 43.83 151.2 43.35L151.2 37.95C151.2 34.32 148.71 32.4 144.81 32.4C141.84 32.4 139.02 33.59 138.45 36.96L142.08 37.53C142.41 36.21 143.4 35.66 144.54 35.66C145.98 35.66 147.09 36.5 147.09 38.04L147.09 38.34L142.59 38.79C139.83 39.06 137.79 40.56 137.79 43.26C137.79 46.11 139.98 47.7 142.95 47.7C144.93 47.7 146.49 47.07 147.48 45.99C148.17 47.31 149.79 47.7 151.08 47.7C151.65 47.7 152.25 47.61 152.64 47.49L152.64 44.04ZM180.41 43.32C181.01 45.99 183.44 47.7 186.95 47.7C190.7 47.7 193.22 45.75 193.22 43.23C193.22 41.85 192.47 40.65 191.12 39.9C192.35 39.21 192.98 38.09 192.98 36.81C192.98 34.29 190.46 32.4 186.8 32.4C183.44 32.4 181.01 34.02 180.41 36.59L183.95 37.5C184.25 36.39 185.24 35.7 186.65 35.7C187.88 35.7 188.87 36.21 188.87 37.11C188.87 37.89 188.06 38.46 186.5 38.46L184.76 38.46L184.76 41.28L186.5 41.28C188.18 41.28 189.11 41.91 189.11 42.81C189.11 43.77 188.12 44.4 186.77 44.4C185.27 44.4 184.25 43.59 183.95 42.42L180.41 43.32ZM209.8 44.04C209.53 44.1 209.29 44.16 209.14 44.16C208.63 44.16 208.36 43.83 208.36 43.35L208.36 37.95C208.36 34.32 205.87 32.4 201.97 32.4C199 32.4 196.18 33.59 195.61 36.96L199.24 37.53C199.57 36.21 200.56 35.66 201.7 35.66C203.14 35.66 204.25 36.5 204.25 38.04L204.25 38.34L199.75 38.79C196.99 39.06 194.95 40.56 194.95 43.26C194.95 46.11 197.14 47.7 200.11 47.7C202.09 47.7 203.65 47.07 204.64 45.99C205.33 47.31 206.95 47.7 208.24 47.7C208.81 47.7 209.41 47.61 209.8 47.49L209.8 44.04ZM228.26 40.11C228.26 44.64 231.71 47.7 236.18 47.7C240.62 47.7 244.07 44.64 244.07 40.11C244.07 35.46 240.62 32.4 236.18 32.4C231.71 32.4 228.26 35.46 228.26 40.11ZM127.9 36.3L127.9 47.4L132.01 47.4L132.01 36.3L136.57 36.3L136.57 32.7L123.31 32.7L123.31 36.3L127.9 36.3ZM154.27 44.13L154.27 47.7L155.17 47.7C159.04 47.7 161.26 45.57 161.56 41.79L162.01 36.3L166.84 36.3L166.84 47.4L170.95 47.4L170.95 32.7L158.14 32.7L157.45 41.67C157.36 43.17 156.61 44.13 155.17 44.13L154.27 44.13ZM249.6 36.3L249.6 47.4L253.71 47.4L253.71 36.3L258.27 36.3L258.27 32.7L245.01 32.7L245.01 36.3L249.6 36.3ZM260.33 32.7L260.33 47.4L267.68 47.4C271.82 47.4 274.07 45.21 274.07 41.97C274.07 38.66 271.88 36.36 267.68 36.36L264.44 36.36L264.44 32.7L260.33 32.7ZM275.78 32.7L275.78 47.4L279.89 47.4L279.89 32.7L275.78 32.7ZM118.11 40.05C118.11 42.54 116.43 44.13 114.33 44.13C112.2 44.13 110.58 42.51 110.58 40.05C110.58 37.59 112.2 35.97 114.33 35.97C116.43 35.97 118.11 37.53 118.11 40.05ZM99.69 40.08C99.69 42.54 98.04 44.01 96 44.01C93.93 44.01 92.31 42.54 92.31 40.08C92.31 37.53 93.93 36.06 96 36.06C98.04 36.06 99.69 37.53 99.69 40.08ZM239.87 40.08C239.87 42.54 238.22 44.01 236.18 44.01C234.11 44.01 232.49 42.54 232.49 40.08C232.49 37.53 234.11 36.06 236.18 36.06C238.22 36.06 239.87 37.53 239.87 40.08ZM222.31 40.59C222.31 42.69 220.81 44.01 218.92 44.01C216.97 44.01 215.53 42.69 215.53 40.62C215.53 38.55 216.94 37.16 218.89 37.16C220.81 37.16 222.31 38.49 222.31 40.59ZM267.59 44.04L264.44 44.04L264.44 39.72L267.59 39.72C268.85 39.72 269.81 40.59 269.81 41.88C269.81 43.17 268.85 44.04 267.59 44.04ZM147.09 41.07L147.09 41.55C147.09 43.5 145.83 44.55 144.18 44.64C142.89 44.67 141.81 44.22 141.81 43.11C141.81 42.24 142.5 41.61 143.7 41.49L147.09 41.07ZM204.25 41.07L204.25 41.55C204.25 43.5 202.99 44.55 201.34 44.64C200.05 44.67 198.97 44.22 198.97 43.11C198.97 42.24 199.66 41.61 200.86 41.49L204.25 41.07Z" fill="#0294FC" fill-opacity="1.000000" fill-rule="evenodd"/>
	<path id="Нижегородской области" d="M201.65 70.11C201.65 72.97 203.41 74.24 205.54 74.24C207.83 74.24 209.52 72.78 209.52 70.41C209.52 68.2 208.05 66.73 206.03 66.73C205.04 66.73 204.1 67.07 203.43 67.95C204.16 65.82 205.23 65.02 207.09 64.51L208.83 64.03L208.83 62.51L206.61 63.08C202.96 64.03 201.65 67.64 201.65 70.11ZM180.85 62.78C180.85 64.2 181.81 65.16 183.23 65.16C184.67 65.16 185.63 64.2 185.63 62.78L184.38 62.78C184.38 63.55 183.92 64.06 183.23 64.06C182.54 64.06 182.1 63.55 182.1 62.78L180.85 62.78ZM67.24 62.88L67.24 74.08L69 74.08L69 69.28L74.35 69.28L74.35 74.08L76.11 74.08L76.11 62.88L74.35 62.88L74.35 67.68L69 67.68L69 62.88L67.24 62.88ZM99.93 70.2C99.93 72.65 101.64 74.24 103.9 74.24C105.52 74.24 106.92 73.47 107.34 71.9L105.84 71.45C105.66 72.38 104.84 72.86 103.9 72.86C102.67 72.86 101.77 72.04 101.64 70.59L107.63 70.59C107.64 70.44 107.66 70.27 107.66 70.04C107.66 67.69 106.06 66.17 103.87 66.17C101.64 66.17 99.93 67.77 99.93 70.2ZM115.24 70.24C115.24 72.64 117.02 74.24 119.34 74.24C121.64 74.24 123.44 72.64 123.44 70.24C123.44 67.77 121.64 66.17 119.34 66.17C117.02 66.17 115.24 67.77 115.24 70.24ZM133.26 70.2C133.26 67.82 131.59 66.17 129.45 66.17C128.31 66.17 127.42 66.62 126.83 67.39L126.83 66.33L125.11 66.33L125.11 77.28L126.83 77.28L126.83 73C127.42 73.79 128.31 74.24 129.47 74.24C131.61 74.24 133.26 72.59 133.26 70.2ZM134.45 70.24C134.45 72.64 136.22 74.24 138.54 74.24C140.85 74.24 142.64 72.64 142.64 70.24C142.64 67.77 140.85 66.17 138.54 66.17C136.22 66.17 134.45 67.77 134.45 70.24ZM153.04 70.22C153.04 72.64 154.77 74.24 157.01 74.24C158.67 74.24 160.19 73.4 160.56 71.82L159.06 71.34C158.86 72.19 158.05 72.7 157.1 72.7C155.81 72.7 154.8 71.72 154.8 70.2C154.8 68.7 155.79 67.71 157.09 67.71C158.05 67.71 158.86 68.22 159.06 69.05L160.56 68.57C160.19 67 158.67 66.17 157.01 66.17C154.74 66.17 153.04 67.83 153.04 70.22ZM169.73 70.24C169.73 72.64 171.5 74.24 173.82 74.24C176.13 74.24 177.92 72.64 177.92 70.24C177.92 67.77 176.13 66.17 173.82 66.17C171.5 66.17 169.73 67.77 169.73 70.24ZM192.28 70.24C192.28 72.64 194.05 74.24 196.37 74.24C198.68 74.24 200.47 72.64 200.47 70.24C200.47 67.77 198.68 66.17 196.37 66.17C194.05 66.17 192.28 67.77 192.28 70.24ZM228.03 72.72C227.89 72.75 227.79 72.76 227.73 72.76C227.42 72.76 227.28 72.59 227.28 72.32L227.28 69.12C227.28 67.19 225.98 66.17 224 66.17C222.5 66.17 221.12 66.83 220.78 68.44L222.3 68.72C222.5 67.96 223.1 67.55 223.9 67.55C224.85 67.55 225.57 68.11 225.57 69.15L225.57 69.29L223.01 69.56C221.62 69.71 220.43 70.43 220.43 71.92C220.43 73.4 221.6 74.24 223.2 74.24C224.29 74.24 225.14 73.85 225.66 73.21C225.92 73.96 226.66 74.24 227.36 74.24C227.6 74.24 227.86 74.2 228.03 74.16L228.03 72.72ZM229.06 70.22C229.06 72.64 230.78 74.24 233.02 74.24C234.69 74.24 236.21 73.4 236.58 71.82L235.07 71.34C234.88 72.19 234.06 72.7 233.12 72.7C231.82 72.7 230.82 71.72 230.82 70.2C230.82 68.7 231.81 67.71 233.1 67.71C234.06 67.71 234.88 68.22 235.07 69.05L236.58 68.57C236.21 67 234.69 66.17 233.02 66.17C230.75 66.17 229.06 67.83 229.06 70.22ZM78.44 66.33L78.44 74.08L79.91 74.08L83.98 69.15L83.98 74.08L85.69 74.08L85.69 66.33L84.22 66.33L80.15 71.26L80.15 66.33L78.44 66.33ZM89.51 70.06L86.9 74.08L88.84 74.08L90.81 70.89L92.33 70.89L92.33 74.08L94.04 74.08L94.04 70.89L95.56 70.89L97.53 74.08L99.45 74.08L96.86 70.06L99.13 66.33L97.34 66.33L95.56 69.37L94.04 69.37L94.04 66.33L92.33 66.33L92.33 69.37L90.81 69.37L89.03 66.33L87.24 66.33L89.51 70.06ZM109.33 66.33L109.33 74.08L111.05 74.08L111.05 67.85L114.84 67.85L114.84 66.33L109.33 66.33ZM143.24 72.56L143.24 76.44L144.95 76.44L144.95 74.08L150.72 74.08L150.72 76.44L152.44 76.44L152.44 72.56L151.44 72.56L151.44 66.33L145.52 66.33L145.03 71.53C144.96 72.24 144.47 72.56 143.99 72.56L143.24 72.56ZM162.08 66.33L162.08 74.08L163.8 74.08L163.8 70.89L165.25 70.89L167.3 74.08L169.22 74.08L166.63 70.06L168.9 66.33L167.11 66.33L165.25 69.37L163.8 69.37L163.8 66.33L162.08 66.33ZM179.6 66.33L179.6 74.08L181.07 74.08L185.14 69.15L185.14 74.08L186.85 74.08L186.85 66.33L185.38 66.33L181.31 71.26L181.31 66.33L179.6 66.33ZM210.17 72.72L210.17 74.24L210.59 74.24C212.44 74.24 213.48 73.19 213.63 71.36L213.9 67.85L217.03 67.85L217.03 74.08L218.75 74.08L218.75 66.33L212.28 66.33L211.91 71.31C211.85 72.19 211.43 72.72 210.59 72.72L210.17 72.72ZM239.8 67.85L239.8 74.08L241.51 74.08L241.51 67.85L244.05 67.85L244.05 66.33L237.24 66.33L237.24 67.85L239.8 67.85ZM245.36 66.33L245.36 74.08L246.84 74.08L250.9 69.15L250.9 74.08L252.61 74.08L252.61 66.33L251.14 66.33L247.08 71.26L247.08 66.33L245.36 66.33ZM103.88 67.56C105.05 67.56 105.85 68.33 106 69.28L101.74 69.28C102.03 68.17 102.84 67.56 103.88 67.56ZM131.5 70.2C131.5 71.76 130.44 72.73 129.15 72.73C127.8 72.73 126.83 71.71 126.83 70.2C126.83 68.7 127.8 67.68 129.15 67.68C130.44 67.68 131.5 68.65 131.5 70.2ZM121.68 70.22C121.68 71.74 120.64 72.7 119.34 72.7C118.03 72.7 117 71.74 117 70.22C117 68.65 118.03 67.71 119.34 67.71C120.64 67.71 121.68 68.65 121.68 70.22ZM140.88 70.22C140.88 71.74 139.84 72.7 138.54 72.7C137.23 72.7 136.21 71.74 136.21 70.22C136.21 68.65 137.23 67.71 138.54 67.71C139.84 67.71 140.88 68.65 140.88 70.22ZM176.16 70.22C176.16 71.74 175.12 72.7 173.82 72.7C172.51 72.7 171.49 71.74 171.49 70.22C171.49 68.65 172.51 67.71 173.82 67.71C175.12 67.71 176.16 68.65 176.16 70.22ZM198.71 70.22C198.71 71.74 197.67 72.7 196.37 72.7C195.06 72.7 194.04 71.74 194.04 70.22C194.04 68.65 195.06 67.71 196.37 67.71C197.67 67.71 198.71 68.65 198.71 70.22ZM149.73 72.56L146.47 72.56C146.61 72.38 146.69 72.19 146.74 71.61L147.06 67.85L149.73 67.85L149.73 72.56ZM207.76 70.48C207.76 71.85 206.79 72.7 205.59 72.7C204.37 72.7 203.41 71.85 203.41 70.49C203.41 69.15 204.34 68.27 205.57 68.27C206.79 68.27 207.76 69.12 207.76 70.48ZM225.57 70.92C225.57 72.16 224.83 72.84 223.71 72.92C222.9 72.97 222.13 72.67 222.13 71.92C222.13 71.32 222.58 70.94 223.34 70.84L225.57 70.59L225.57 70.92Z" fill="#0294FC" fill-opacity="1.000000" fill-rule="evenodd"/>
</svg>
